<svg xmlns="http://www.w3.org/2000/svg" viewBox="0 0 100 100">
  <g>
    <path d="M21,17H38a0,0,0,0,1,0,0V83a0,0,0,0,1,0,0H21a7,7,0,0,1-7-7V24A7,7,0,0,1,21,17Z" style="fill:#02d1ac"/>
    <rect x="38" y="17" width="24" height="66" style="fill:#74e6d1"/>
    <path d="M62,17H79a7,7,0,0,1,7,7V76a7,7,0,0,1-7,7H62a0,0,0,0,1,0,0V17A0,0,0,0,1,62,17Z" style="fill:#ccf6ee"/>
  </g>
  <path d="M22,29.57l-2-1-2-1a.6.6,0,0,0-.48,0l-2,1-2,1A3.43,3.43,0,0,1,8.88,25l1-2,1-2a.6.6,0,0,0,0-.48l-1-2-1-2a3.43,3.43,0,0,1,4.58-4.58l2,1,2,1a.6.6,0,0,0,.48,0l2-1,2-1a3.43,3.43,0,0,1,4.59,4.58l-1,2-1,2a.6.6,0,0,0,0,.48l1,2,1,2A3.43,3.43,0,0,1,22,29.57Z" style="fill:#a6efe2"/>
  <path d="M23.22,60.55l-1.95,1.11-1.95,1.1a.79.79,0,0,0-.19.17.85.85,0,0,0-.09.24l-.33,2.21-.33,2.22A3.43,3.43,0,0,1,12,68.79l-1.11-2-1.1-2a.73.73,0,0,0-.17-.18.5.5,0,0,0-.23-.09l-2.22-.33L5,64a3.43,3.43,0,0,1-1.18-6.38l2-1.1,1.95-1.11a.58.58,0,0,0,.18-.17A.5.5,0,0,0,8,55l.33-2.22.34-2.22A3.43,3.43,0,0,1,15,49.34l1.1,1.95,1.11,2a.52.52,0,0,0,.17.19.65.65,0,0,0,.23.09l2.22.33,2.22.33a3.43,3.43,0,0,1,1.18,6.37Z" style="fill:#019278"/>
  <path d="M66.08,26.46,64,25.65l-2.09-.81a.52.52,0,0,0-.25,0,.57.57,0,0,0-.24.08L59.48,26l-1.92,1.15a3.43,3.43,0,0,1-5-4.17l.8-2.1.81-2.09a.52.52,0,0,0,0-.25.48.48,0,0,0-.07-.23L53,16.42,51.86,14.5a3.39,3.39,0,0,1,.32-4,3.35,3.35,0,0,1,3.85-1l2.1.8,2.09.81a.69.69,0,0,0,.25,0,.75.75,0,0,0,.24-.08L62.63,10,64.55,8.8a3.43,3.43,0,0,1,5,4.18l-.8,2.09-.81,2.09a.54.54,0,0,0,0,.25.55.55,0,0,0,.07.24l1.16,1.92,1.15,1.93a3.43,3.43,0,0,1-4.17,5Z" style="fill:#02d1ac"/>
  <g>
    <path d="M38.1,37.35h9.73a4,4,0,0,1,4,4v8a0,0,0,0,1,0,0H34.1a0,0,0,0,1,0,0v-8A4,4,0,0,1,38.1,37.35Z" transform="translate(-18.05 44.12) rotate(-45.98)" style="fill:#ccf6ee"/>
    <path d="M57.41,39.34H75.14a0,0,0,0,1,0,0v49a4,4,0,0,1-4,4H61.41a4,4,0,0,1-4-4v-49a0,0,0,0,1,0,0Z" transform="translate(-27.13 67.76) rotate(-45.98)" style="fill:#02a78a"/>
  </g>
</svg>